<svg id="Layer_1" data-name="Layer 1" xmlns="http://www.w3.org/2000/svg" viewBox="0 0 1070.93 934.13"><defs><style>.cls-1{fill:#daeaf1;}.cls-2{fill:#003b49;}</style></defs><path class="cls-1" d="M281.94,926.08a145.07,145.07,0,0,1-93.13-33.86l-1.23-1-3.34-3.3L52.66,736.27A146,146,0,0,1,4,630.26L4,277.86A232.76,232.76,0,0,1,178.27,52.62,1432.28,1432.28,0,0,1,835.45,41.56c39.54,8.67,95.25,35,126.82,60,58,45.87,103.44,139.73,103.43,213.68l0,316c-.79,41.9-18.46,80.68-48.64,107.66L883.35,892.74l-2.47,2.06a144.79,144.79,0,0,1-93,33.93Z"/><path class="cls-2" d="M230,840.94a84.78,84.78,0,0,0,54,19.26h7.13l495,2.63a84.41,84.41,0,0,0,53.65-19.31L972.13,691.08a86.27,86.27,0,0,0,30.43-64.53l0-313.52c0-55.42-36.71-131.27-80.17-165.64C898,128,851.31,106,820.6,99.24a1362.56,1362.56,0,0,0-625.14,10.53h0a170.35,170.35,0,0,0-73.77,40.57A172.21,172.21,0,0,0,67.07,275.92l.06,348.92a85.46,85.46,0,0,0,30.43,63.67l1,1Zm556,40.4L284,878.71a103.4,103.4,0,0,1-66.43-24.05l-1-1L85.08,702.19A104,104,0,0,1,48.63,625l-.06-349.1A190.24,190.24,0,0,1,190.89,91.84,1381.06,1381.06,0,0,1,824.56,81.17c33.54,7.36,82.6,30.55,109.35,51.71,48.09,38,87.2,118.84,87.19,180.15l0,313.69a104.9,104.9,0,0,1-36.47,78L852.16,857.23A103,103,0,0,1,786,881.34"/><path class="cls-2" d="M253.86,812.28a47.2,47.2,0,0,0,29.8,10.62h7.64l494.46,2.62a47.21,47.21,0,0,0,30-10.57l132.4-152.42a48.15,48.15,0,0,0,17.14-36l0-312.9c0-26.2-11.37-67.34-24.84-89.83-26-43.37-69.67-74.56-119.89-85.55a1363.44,1363.44,0,0,0-608.45,6.52,140.51,140.51,0,0,0-93.67,75.79,142.19,142.19,0,0,0-14.08,61.49l.06,342.07A48.13,48.13,0,0,0,121.57,660l1,1ZM786,844,284,841.4A65.91,65.91,0,0,1,241.42,826l-1-1L109.08,673.63a66.72,66.72,0,0,1-23.16-49.32l0-342.25a160.66,160.66,0,0,1,15.93-69.55,158.88,158.88,0,0,1,106-85.71,1381.8,1381.8,0,0,1,616.76-6.62c55.18,12.09,103.23,46.39,131.81,94.12,15.15,25.31,27.47,69.87,27.46,99.35l0,313.06a66.79,66.79,0,0,1-23.16,49.5L828.16,828.67A65.58,65.58,0,0,1,786,844"/><path class="cls-2" d="M227.27,582.9a191.87,191.87,0,0,0-22.47,2.24,16.33,16.33,0,0,0-13.21,20l0,.21c35.66-8.92,54.67-9,89.91-1l0-.2a16.24,16.24,0,0,0-13.53-19.69A191.9,191.9,0,0,0,246,582.71"/><path class="cls-2" d="M588.21,270.16a73.43,73.43,0,0,1-21.88,18.65l2,3.91a13.11,13.11,0,0,0,12.23,7.47c6-.24,14.44-3.94,30.85-29.45,1.49-2.31,3-4.7,4.42-7.11L615,486.41s-20.79-1.24-27.73-1.21a15.84,15.84,0,0,0-12,6.1,16.63,16.63,0,0,0-3.53,13l.13,1,.8-.09c40.22-4.46,61.71-2.31,100,9.91l.74.24.35-.91a16.43,16.43,0,0,0-.7-13.44c-.76-1.47-2.87-3.1-5.46-4.64a51.27,51.27,0,0,0-21.2-6.68l-11.95-1.17V231.35c0-4.92-3.08-9.59-7.84-10.82a10.21,10.21,0,0,0-12.14,6.09c-2.32,5.6-8.05,16.61-14.52,27.34a102.85,102.85,0,0,1-7.27,10.55Z"/><path class="cls-2" d="M858.17,315.53a18.69,18.69,0,0,0,19.65,17.32l-2.43-38.55a42.34,42.34,0,0,0-.74-5.61,29.94,29.94,0,0,0-2.52-8.11c-5-9.47-12.82-16.55-24.9-21.06,0,0-62.75-22.28-84.58-25.75-30.89-4.9-32.15,9.71-33.31,22.61l-.2,175.88A14.73,14.73,0,0,0,742.82,447l5-2a59.9,59.9,0,0,1,18.88-15.07c8.71-4.44,18.62-7.5,28.57-6.79,84.46,6,76.25,72.23,74.91,105.44-1.08,26.8-15.29,52.19-39.74,65.88-27.33,15.31-55.05,11.77-73.49-2.61-14-10.89-22.1-28.59-18.74-45.72,2.12-10.74-4.73-7.89-8.87-5.62-9.33,5.13-14.23,16-11.27,26.23,9.07,31.31,40.44,54.11,76.53,54.83,44,.87,79.06-21.74,93.55-77.9,10.25-39.74,9.82-137.39-92.88-138-13-.08-33.26,3.08-44.69,8.9-.53.28-.74.55-.82.84-.55-21.36-3.14-126.29-2-157.56.06-1.56,2-3,4.44-4.05a22.07,22.07,0,0,1,16.49-.25l67.39,21.66a52.28,52.28,0,0,1,5.3,2.24c5.21,2.59,8.66,4.68,11.25,9.89,1.65,6.67,4.85,21.08,5.48,28.25"/><path class="cls-2" d="M245.34,589.19V268.06a10.39,10.39,0,0,0-20-4c-2.35,5.7-8.22,16.94-14.81,27.84a100.21,100.21,0,0,1-6.94,10l-4.49,5.69a73.43,73.43,0,0,1-21.88,18.65l2,3.91a13.12,13.12,0,0,0,12.24,7.48c6-.25,14.43-3.94,30.84-29.46,1.5-2.31,3-4.69,4.42-7.1l-.84,286"/><path class="cls-2" d="M478.4,651.38c-7.58-2.71-15.51-3.6-23.52-3.76-10.17-.2-20.33-.22-30.49-.38a112.52,112.52,0,0,1-15.45-1,27.44,27.44,0,0,1-10.63-3.93c-9.54-6.06-10.17-18.45-4.2-25.93a30.36,30.36,0,0,1,11.19-8.47c8.29-3.85,17.12-5.57,26.2-6.15a90.19,90.19,0,0,1,16.34.58,75.31,75.31,0,0,1,24.76,7.46,114.14,114.14,0,0,1,14.27,8.52c.58.4,1,.65,1.56-.07q4.77-6,9.64-11.9c.45-.55.34-.87-.2-1.24-1.48-1-2.93-2.1-4.43-3.12-14.38-9.86-30.14-16-47.77-17.27a104.57,104.57,0,0,0-33.54,2.67,68.79,68.79,0,0,0-20.95,8.71,51.26,51.26,0,0,0-9.86,8.3,32.84,32.84,0,0,0-8.43,19.83,36.37,36.37,0,0,0,2.28,16.43c3.66,9.44,10.5,15.7,20,19.42,7.13,2.81,14.61,3.78,22.2,4.07,6.46.24,12.92.26,19.38.36,6.87.11,13.75.16,20.61.33A46.91,46.91,0,0,1,472.79,668a29.63,29.63,0,0,1,7.75,4.37,21.59,21.59,0,0,1-.16,34.34,48.06,48.06,0,0,1-12.95,6.87,89.69,89.69,0,0,1-22.36,4.39,110.59,110.59,0,0,1-26.34-.91,66.3,66.3,0,0,1-28.43-11.29,131.5,131.5,0,0,1-15.06-12.47c-1.11-1.06-1-.87-1.91,0l-10.55,10.15c-1,1-.92.91,0,1.86a130.6,130.6,0,0,0,15.38,13.15,85.38,85.38,0,0,0,31.17,14.29,136.75,136.75,0,0,0,26.4,2.93c3.86-.23,7.74-.41,11.6-.71a102.78,102.78,0,0,0,21.4-3.92c7.45-2.22,14.59-5.12,20.94-9.62,5.64-4,10.34-8.87,13.32-15.12a36.16,36.16,0,0,0,2.83-23.06c-3.08-15.56-12.13-26.37-27.45-31.84"/><path class="cls-2" d="M639.82,669.84c-5.87,5.59-13.43,9.28-22.46,11a42.5,42.5,0,0,1-9.11.81c-13.27-.17-24.48-4.79-33.3-13.72a35.42,35.42,0,0,1-10.27-20.47c-1.85-13.61,2.38-25.24,12.58-34.58a44,44,0,0,1,21.48-10.6,48,48,0,0,1,24.31,1c14.87,4.7,24.24,14,27.86,27.72,4,15,.22,28-11.09,38.81M669,629.32c-2.82-13.39-10-24.51-21.43-33.06a62.8,62.8,0,0,0-32.3-12.07,67.52,67.52,0,0,0-18.11.7c-14.32,2.52-26.28,8.85-35.57,18.83-12.88,13.82-17.69,30-14.3,48.16,2.79,14.93,11.1,27.14,24.72,36.27,10.35,7,22.46,10.58,36,10.77h.1l2.72-.18c1.92-.12,3.85-.23,5.76-.45a64.19,64.19,0,0,0,20.09-5.73c13.61-6.43,23.37-16.29,29-29.3A55.25,55.25,0,0,0,669,629.32"/><path class="cls-2" d="M608.29,722.62A10.38,10.38,0,1,0,618.68,733a10.39,10.39,0,0,0-10.39-10.39"/><path class="cls-2" d="M462.72,368q-4.82,3.19-9.91,5.9c-2.83,1.5-6.06,3.23-6.53,3.39A102.44,102.44,0,0,1,413.79,383c-29.49,0-53-15.58-66.2-43.86-17.62-37.8-2.25-83.4,34.25-101.66a83.07,83.07,0,0,1,36.81-9,61.06,61.06,0,0,1,27.81,6.27c18.11,9.31,30.9,28.92,36.94,56.65l.44,2.61c.82,4.94,1.73,13.09,2,18.09s1,14.21.5,17.7c-2.89,18.76-8.11,24.91-19.94,35.77Zm25.16,3.44c-1.5,50.4-11.58,86.9-29.95,108.48-12.9,15.15-29.61,22.52-51.08,22.52-24.72,0-48.16-10.39-67.8-30l-1-1-.82,1.09a19.61,19.61,0,0,0-3.95,12.8,19,19,0,0,0,7.57,14.54c19.79,14.69,42,22.14,66.05,22.17,26.72,0,48.61-9.8,65.05-29.12,43.66-51.29,36-158.07,30.64-201.59a22.2,22.2,0,0,0-.47-2.53c-9.14-43.84-30.82-63.2-47.4-71.72-23.42-12-53.7-11.07-81,2.6-29.79,14.91-49.68,45.13-51.93,78.89-1.86,28,7.23,54.18,25.59,73.81C364.86,391.1,389.15,401.8,414,401.8a88.54,88.54,0,0,0,40-9.5l2.49-1.23c10.08-5,21.72-11.57,30.75-23.75Z"/></svg>